# xmcd
# 
# Track frame offsets:
#     150
#     14362
#     29637
#     45990
#     60162
#     73623
#     88160
#     102757
#     116467
#     130315
# 
# Disc length: 1942
# 
# Revision: 31457448
# Processed by: cddbd v1.5.2PL0 Copyright (c) Steve Scherf et al.
# Submitted via: fre:ac v1.0.31
# 
DISCID=7c07940a
DTITLE=Runaway June - Blue Roses
DYEAR=2019
DGENRE=Country
TTITLE0=Head Over Heels
TTITLE1=Buy My Own Drinks
TTITLE2=We Were Rich
TTITLE3=I Know The Way
TTITLE4=Trouble With This Town
TTITLE5=Got Me Where I Want You
TTITLE6=Fast As You
TTITLE7=I Am Too
TTITLE8=Good, Bad and Ugly
TTITLE9=Blue Roses
EXTD=
EXTT0=
EXTT1=
EXTT2=
EXTT3=
EXTT4=
EXTT5=
EXTT6=
EXTT7=
EXTT8=
EXTT9=
PLAYORDER=
